<mxfile host="app.diagrams.net" modified="2021-01-25T11:42:32.248Z" agent="5.0 (Macintosh; Intel Mac OS X 10_15_7) AppleWebKit/537.36 (KHTML, like Gecko) Chrome/87.0.4280.141 Safari/537.36" etag="yeGnzp8cbXtOZOn2-qoa" version="14.2.7" type="github">
  <diagram id="roFFfxDUJYIJc8eop7bz" name="Page-1">
    <mxGraphModel dx="1186" dy="674" grid="1" gridSize="10" guides="1" tooltips="1" connect="1" arrows="1" fold="1" page="1" pageScale="1" pageWidth="827" pageHeight="1169" math="0" shadow="0">
      <root>
        <mxCell id="0" />
        <mxCell id="1" parent="0" />
        <mxCell id="rOA4uBclnJZB5DrJUqV7-26" style="edgeStyle=orthogonalEdgeStyle;rounded=0;orthogonalLoop=1;jettySize=auto;html=1;exitX=0.5;exitY=1;exitDx=0;exitDy=0;entryX=0.5;entryY=0;entryDx=0;entryDy=0;" parent="1" source="K8Je6sUpNGUMb3yso3Zy-1" target="K8Je6sUpNGUMb3yso3Zy-2" edge="1">
          <mxGeometry relative="1" as="geometry" />
        </mxCell>
        <mxCell id="K8Je6sUpNGUMb3yso3Zy-1" value="签订合同" style="rounded=0;whiteSpace=wrap;html=1;" parent="1" vertex="1">
          <mxGeometry x="200" y="30" width="100" height="40" as="geometry" />
        </mxCell>
        <mxCell id="rOA4uBclnJZB5DrJUqV7-28" style="edgeStyle=orthogonalEdgeStyle;rounded=0;orthogonalLoop=1;jettySize=auto;html=1;exitX=0.5;exitY=1;exitDx=0;exitDy=0;entryX=0.5;entryY=0;entryDx=0;entryDy=0;" parent="1" source="K8Je6sUpNGUMb3yso3Zy-2" target="K8Je6sUpNGUMb3yso3Zy-3" edge="1">
          <mxGeometry relative="1" as="geometry" />
        </mxCell>
        <mxCell id="AUkhUbtXe1NcL0Z-zVLZ-3" style="edgeStyle=orthogonalEdgeStyle;rounded=0;orthogonalLoop=1;jettySize=auto;html=1;exitX=0.5;exitY=1;exitDx=0;exitDy=0;entryX=0.583;entryY=0;entryDx=0;entryDy=0;entryPerimeter=0;" parent="1" source="K8Je6sUpNGUMb3yso3Zy-2" target="VSZwTH_sTi2hfnxuPGPc-11" edge="1">
          <mxGeometry relative="1" as="geometry" />
        </mxCell>
        <mxCell id="K8Je6sUpNGUMb3yso3Zy-2" value="生成订单" style="rounded=0;whiteSpace=wrap;html=1;" parent="1" vertex="1">
          <mxGeometry x="340" y="110" width="120" height="30" as="geometry" />
        </mxCell>
        <mxCell id="AUkhUbtXe1NcL0Z-zVLZ-97" value="" style="edgeStyle=orthogonalEdgeStyle;rounded=0;orthogonalLoop=1;jettySize=auto;html=1;entryX=0.5;entryY=0;entryDx=0;entryDy=0;" parent="1" source="K8Je6sUpNGUMb3yso3Zy-3" edge="1">
          <mxGeometry relative="1" as="geometry">
            <mxPoint x="461.5" y="240" as="targetPoint" />
          </mxGeometry>
        </mxCell>
        <mxCell id="K8Je6sUpNGUMb3yso3Zy-3" value="申请充值" style="rounded=0;whiteSpace=wrap;html=1;" parent="1" vertex="1">
          <mxGeometry x="401.5" y="180" width="120" height="30" as="geometry" />
        </mxCell>
        <mxCell id="AUkhUbtXe1NcL0Z-zVLZ-8" value="" style="edgeStyle=orthogonalEdgeStyle;rounded=0;orthogonalLoop=1;jettySize=auto;html=1;" parent="1" source="K8Je6sUpNGUMb3yso3Zy-4" target="K8Je6sUpNGUMb3yso3Zy-5" edge="1">
          <mxGeometry relative="1" as="geometry" />
        </mxCell>
        <mxCell id="K8Je6sUpNGUMb3yso3Zy-4" value="财务审核" style="rounded=0;whiteSpace=wrap;html=1;" parent="1" vertex="1">
          <mxGeometry x="406.5" y="240" width="100" height="30" as="geometry" />
        </mxCell>
        <mxCell id="rOA4uBclnJZB5DrJUqV7-20" style="edgeStyle=orthogonalEdgeStyle;rounded=0;orthogonalLoop=1;jettySize=auto;html=1;exitX=0.5;exitY=1;exitDx=0;exitDy=0;entryX=0.5;entryY=0;entryDx=0;entryDy=0;" parent="1" source="K8Je6sUpNGUMb3yso3Zy-5" target="K8Je6sUpNGUMb3yso3Zy-6" edge="1">
          <mxGeometry relative="1" as="geometry">
            <Array as="points" />
          </mxGeometry>
        </mxCell>
        <mxCell id="rOA4uBclnJZB5DrJUqV7-21" value="是" style="edgeLabel;html=1;align=center;verticalAlign=middle;resizable=0;points=[];" parent="rOA4uBclnJZB5DrJUqV7-20" vertex="1" connectable="0">
          <mxGeometry x="-0.3905" y="1" relative="1" as="geometry">
            <mxPoint as="offset" />
          </mxGeometry>
        </mxCell>
        <mxCell id="AUkhUbtXe1NcL0Z-zVLZ-135" value="否" style="edgeStyle=orthogonalEdgeStyle;rounded=0;orthogonalLoop=1;jettySize=auto;html=1;entryX=0.5;entryY=1;entryDx=0;entryDy=0;" parent="1" source="K8Je6sUpNGUMb3yso3Zy-5" target="rOA4uBclnJZB5DrJUqV7-1" edge="1">
          <mxGeometry relative="1" as="geometry" />
        </mxCell>
        <mxCell id="K8Je6sUpNGUMb3yso3Zy-5" value="是否收到客户打款" style="rhombus;whiteSpace=wrap;html=1;" parent="1" vertex="1">
          <mxGeometry x="416.5" y="290" width="80" height="50" as="geometry" />
        </mxCell>
        <mxCell id="AUkhUbtXe1NcL0Z-zVLZ-22" value="" style="edgeStyle=orthogonalEdgeStyle;rounded=0;orthogonalLoop=1;jettySize=auto;html=1;fillColor=#ffe6cc;strokeColor=#d79b00;entryX=0;entryY=0.5;entryDx=0;entryDy=0;" parent="1" source="K8Je6sUpNGUMb3yso3Zy-6" target="AUkhUbtXe1NcL0Z-zVLZ-124" edge="1">
          <mxGeometry relative="1" as="geometry">
            <Array as="points" />
          </mxGeometry>
        </mxCell>
        <mxCell id="K8Je6sUpNGUMb3yso3Zy-6" value="打款" style="rounded=0;whiteSpace=wrap;html=1;" parent="1" vertex="1">
          <mxGeometry x="411.5" y="374" width="90" height="30" as="geometry" />
        </mxCell>
        <mxCell id="AUkhUbtXe1NcL0Z-zVLZ-20" style="edgeStyle=orthogonalEdgeStyle;rounded=0;orthogonalLoop=1;jettySize=auto;html=1;exitX=0.5;exitY=0;exitDx=0;exitDy=0;entryX=1;entryY=0.25;entryDx=0;entryDy=0;" parent="1" source="rOA4uBclnJZB5DrJUqV7-1" target="K8Je6sUpNGUMb3yso3Zy-3" edge="1">
          <mxGeometry relative="1" as="geometry" />
        </mxCell>
        <mxCell id="rOA4uBclnJZB5DrJUqV7-1" value="退回" style="rounded=0;whiteSpace=wrap;html=1;" parent="1" vertex="1">
          <mxGeometry x="522.5" y="250" width="80" height="30" as="geometry" />
        </mxCell>
        <mxCell id="rOA4uBclnJZB5DrJUqV7-56" style="edgeStyle=orthogonalEdgeStyle;rounded=0;orthogonalLoop=1;jettySize=auto;html=1;" parent="1" source="rOA4uBclnJZB5DrJUqV7-50" edge="1">
          <mxGeometry relative="1" as="geometry">
            <mxPoint x="438" y="569" as="targetPoint" />
          </mxGeometry>
        </mxCell>
        <mxCell id="rOA4uBclnJZB5DrJUqV7-50" value="索要发票" style="rounded=0;whiteSpace=wrap;html=1;" parent="1" vertex="1">
          <mxGeometry x="397.5" y="498" width="80" height="35.5" as="geometry" />
        </mxCell>
        <mxCell id="rOA4uBclnJZB5DrJUqV7-58" value="" style="edgeStyle=orthogonalEdgeStyle;rounded=0;orthogonalLoop=1;jettySize=auto;html=1;" parent="1" source="rOA4uBclnJZB5DrJUqV7-53" target="rOA4uBclnJZB5DrJUqV7-57" edge="1">
          <mxGeometry relative="1" as="geometry" />
        </mxCell>
        <mxCell id="rOA4uBclnJZB5DrJUqV7-53" value="收到阿里云发票" style="rounded=0;whiteSpace=wrap;html=1;" parent="1" vertex="1">
          <mxGeometry x="390" y="570" width="92" height="30" as="geometry" />
        </mxCell>
        <mxCell id="rOA4uBclnJZB5DrJUqV7-64" value="" style="edgeStyle=orthogonalEdgeStyle;rounded=0;orthogonalLoop=1;jettySize=auto;html=1;" parent="1" source="rOA4uBclnJZB5DrJUqV7-57" target="rOA4uBclnJZB5DrJUqV7-60" edge="1">
          <mxGeometry relative="1" as="geometry" />
        </mxCell>
        <mxCell id="rOA4uBclnJZB5DrJUqV7-57" value="导入发票" style="rounded=0;whiteSpace=wrap;html=1;" parent="1" vertex="1">
          <mxGeometry x="394.5" y="630" width="83" height="30" as="geometry" />
        </mxCell>
        <mxCell id="rOA4uBclnJZB5DrJUqV7-65" value="是" style="edgeStyle=orthogonalEdgeStyle;rounded=0;orthogonalLoop=1;jettySize=auto;html=1;entryX=0.5;entryY=0;entryDx=0;entryDy=0;" parent="1" source="rOA4uBclnJZB5DrJUqV7-60" target="I3_jWcB05y7nGx8-yXRg-2" edge="1">
          <mxGeometry relative="1" as="geometry">
            <mxPoint x="430" y="808" as="targetPoint" />
          </mxGeometry>
        </mxCell>
        <mxCell id="AUkhUbtXe1NcL0Z-zVLZ-101" style="edgeStyle=orthogonalEdgeStyle;rounded=0;orthogonalLoop=1;jettySize=auto;html=1;exitX=0;exitY=0.5;exitDx=0;exitDy=0;" parent="1" source="rOA4uBclnJZB5DrJUqV7-60" edge="1">
          <mxGeometry relative="1" as="geometry">
            <mxPoint x="380" y="517.5" as="targetPoint" />
            <Array as="points">
              <mxPoint x="360" y="736" />
              <mxPoint x="360" y="518" />
            </Array>
          </mxGeometry>
        </mxCell>
        <mxCell id="AUkhUbtXe1NcL0Z-zVLZ-102" value="否" style="edgeLabel;html=1;align=center;verticalAlign=middle;resizable=0;points=[];" parent="AUkhUbtXe1NcL0Z-zVLZ-101" vertex="1" connectable="0">
          <mxGeometry x="0.0014" relative="1" as="geometry">
            <mxPoint as="offset" />
          </mxGeometry>
        </mxCell>
        <mxCell id="rOA4uBclnJZB5DrJUqV7-60" value="发票金额是否等于充值金额" style="rhombus;whiteSpace=wrap;html=1;" parent="1" vertex="1">
          <mxGeometry x="385" y="690" width="102" height="55" as="geometry" />
        </mxCell>
        <mxCell id="rOA4uBclnJZB5DrJUqV7-61" value="充值&lt;br&gt;完成" style="ellipse;whiteSpace=wrap;html=1;aspect=fixed;" parent="1" vertex="1">
          <mxGeometry x="407.5" y="840" width="60" height="60" as="geometry" />
        </mxCell>
        <mxCell id="rOA4uBclnJZB5DrJUqV7-70" value="1、发票金额和消费金额是不是一个意思呢？&lt;br&gt;2、发票的消费金额是否需要与打款的金额对应。先进先出规则。发票金额需要按订单拆分&lt;br&gt;&lt;br&gt;&lt;div&gt;&lt;span&gt;3、录入发票时，发票金额与申请充值金额不相等怎么处理呢？&lt;/span&gt;&lt;/div&gt;&lt;div&gt;&lt;span&gt;&lt;br&gt;&lt;/span&gt;&lt;/div&gt;&lt;div&gt;&lt;br&gt;&lt;/div&gt;" style="text;html=1;strokeColor=none;fillColor=none;align=left;verticalAlign=middle;whiteSpace=wrap;rounded=0;" parent="1" vertex="1">
          <mxGeometry x="20" y="1203.5" width="280" height="110" as="geometry" />
        </mxCell>
        <mxCell id="I3_jWcB05y7nGx8-yXRg-32" style="edgeStyle=orthogonalEdgeStyle;rounded=0;orthogonalLoop=1;jettySize=auto;html=1;entryX=1;entryY=0.5;entryDx=0;entryDy=0;" edge="1" parent="1" source="VSZwTH_sTi2hfnxuPGPc-1" target="rOA4uBclnJZB5DrJUqV7-50">
          <mxGeometry relative="1" as="geometry" />
        </mxCell>
        <mxCell id="VSZwTH_sTi2hfnxuPGPc-1" value="&lt;span&gt;生成发票&lt;/span&gt;" style="rounded=0;whiteSpace=wrap;html=1;" parent="1" vertex="1">
          <mxGeometry x="669.5" y="498" width="110" height="35" as="geometry" />
        </mxCell>
        <mxCell id="I3_jWcB05y7nGx8-yXRg-25" style="edgeStyle=orthogonalEdgeStyle;rounded=0;orthogonalLoop=1;jettySize=auto;html=1;" edge="1" parent="1" source="VSZwTH_sTi2hfnxuPGPc-2" target="AUkhUbtXe1NcL0Z-zVLZ-25">
          <mxGeometry relative="1" as="geometry" />
        </mxCell>
        <mxCell id="VSZwTH_sTi2hfnxuPGPc-2" value="&lt;span&gt;生成账单明细&lt;br&gt;&lt;/span&gt;" style="rounded=0;whiteSpace=wrap;html=1;" parent="1" vertex="1">
          <mxGeometry x="716.5" y="548" width="100" height="35" as="geometry" />
        </mxCell>
        <mxCell id="VSZwTH_sTi2hfnxuPGPc-8" value="驻云/Shrine系统" style="rounded=0;whiteSpace=wrap;html=1;" parent="1" vertex="1">
          <mxGeometry x="240" width="370" height="20" as="geometry" />
        </mxCell>
        <mxCell id="VSZwTH_sTi2hfnxuPGPc-9" value="客户/合作伙伴" style="rounded=0;whiteSpace=wrap;html=1;" parent="1" vertex="1">
          <mxGeometry x="10" width="230" height="20" as="geometry" />
        </mxCell>
        <mxCell id="VSZwTH_sTi2hfnxuPGPc-10" value="阿里云" style="rounded=0;whiteSpace=wrap;html=1;" parent="1" vertex="1">
          <mxGeometry x="610" width="220" height="20" as="geometry" />
        </mxCell>
        <mxCell id="AUkhUbtXe1NcL0Z-zVLZ-85" value="" style="edgeStyle=orthogonalEdgeStyle;rounded=0;orthogonalLoop=1;jettySize=auto;html=1;entryX=0.5;entryY=0;entryDx=0;entryDy=0;" parent="1" source="VSZwTH_sTi2hfnxuPGPc-11" target="AUkhUbtXe1NcL0Z-zVLZ-95" edge="1">
          <mxGeometry relative="1" as="geometry" />
        </mxCell>
        <mxCell id="VSZwTH_sTi2hfnxuPGPc-11" value="申请开票" style="rounded=0;whiteSpace=wrap;html=1;" parent="1" vertex="1">
          <mxGeometry x="250" y="180" width="110" height="30" as="geometry" />
        </mxCell>
        <mxCell id="I3_jWcB05y7nGx8-yXRg-28" style="edgeStyle=orthogonalEdgeStyle;rounded=0;orthogonalLoop=1;jettySize=auto;html=1;entryX=0.5;entryY=0;entryDx=0;entryDy=0;" edge="1" parent="1" source="AUkhUbtXe1NcL0Z-zVLZ-21" target="VSZwTH_sTi2hfnxuPGPc-1">
          <mxGeometry relative="1" as="geometry" />
        </mxCell>
        <mxCell id="I3_jWcB05y7nGx8-yXRg-29" style="edgeStyle=orthogonalEdgeStyle;rounded=0;orthogonalLoop=1;jettySize=auto;html=1;entryX=0.835;entryY=0;entryDx=0;entryDy=0;entryPerimeter=0;" edge="1" parent="1" source="AUkhUbtXe1NcL0Z-zVLZ-21" target="VSZwTH_sTi2hfnxuPGPc-2">
          <mxGeometry relative="1" as="geometry">
            <Array as="points">
              <mxPoint x="800" y="520" />
              <mxPoint x="800" y="520" />
            </Array>
          </mxGeometry>
        </mxCell>
        <mxCell id="AUkhUbtXe1NcL0Z-zVLZ-21" value="客户消费" style="rounded=0;whiteSpace=wrap;html=1;" parent="1" vertex="1">
          <mxGeometry x="713" y="430" width="97" height="30" as="geometry" />
        </mxCell>
        <mxCell id="AUkhUbtXe1NcL0Z-zVLZ-45" style="edgeStyle=orthogonalEdgeStyle;rounded=0;orthogonalLoop=1;jettySize=auto;html=1;entryX=0.5;entryY=0;entryDx=0;entryDy=0;" parent="1" source="AUkhUbtXe1NcL0Z-zVLZ-25" target="AUkhUbtXe1NcL0Z-zVLZ-27" edge="1">
          <mxGeometry relative="1" as="geometry" />
        </mxCell>
        <mxCell id="AUkhUbtXe1NcL0Z-zVLZ-25" value="索要账单明细" style="rounded=0;whiteSpace=wrap;html=1;" parent="1" vertex="1">
          <mxGeometry x="524.5" y="618" width="120" height="30" as="geometry" />
        </mxCell>
        <mxCell id="AUkhUbtXe1NcL0Z-zVLZ-46" style="edgeStyle=orthogonalEdgeStyle;rounded=0;orthogonalLoop=1;jettySize=auto;html=1;entryX=0.5;entryY=0;entryDx=0;entryDy=0;" parent="1" source="AUkhUbtXe1NcL0Z-zVLZ-27" target="AUkhUbtXe1NcL0Z-zVLZ-35" edge="1">
          <mxGeometry relative="1" as="geometry" />
        </mxCell>
        <mxCell id="AUkhUbtXe1NcL0Z-zVLZ-27" value="导入账账单明细" style="rounded=0;whiteSpace=wrap;html=1;" parent="1" vertex="1">
          <mxGeometry x="524.5" y="678" width="120" height="30" as="geometry" />
        </mxCell>
        <mxCell id="AUkhUbtXe1NcL0Z-zVLZ-50" style="edgeStyle=orthogonalEdgeStyle;rounded=0;orthogonalLoop=1;jettySize=auto;html=1;" parent="1" source="AUkhUbtXe1NcL0Z-zVLZ-29" target="AUkhUbtXe1NcL0Z-zVLZ-48" edge="1">
          <mxGeometry relative="1" as="geometry" />
        </mxCell>
        <mxCell id="AUkhUbtXe1NcL0Z-zVLZ-29" value="计算分销账号佣金" style="rounded=0;whiteSpace=wrap;html=1;" parent="1" vertex="1">
          <mxGeometry x="660" y="808" width="26" height="80" as="geometry" />
        </mxCell>
        <mxCell id="AUkhUbtXe1NcL0Z-zVLZ-55" style="edgeStyle=orthogonalEdgeStyle;rounded=0;orthogonalLoop=1;jettySize=auto;html=1;entryX=0.5;entryY=0;entryDx=0;entryDy=0;" parent="1" source="AUkhUbtXe1NcL0Z-zVLZ-30" target="AUkhUbtXe1NcL0Z-zVLZ-51" edge="1">
          <mxGeometry relative="1" as="geometry" />
        </mxCell>
        <mxCell id="AUkhUbtXe1NcL0Z-zVLZ-30" value="计算客户返利" style="rounded=0;whiteSpace=wrap;html=1;" parent="1" vertex="1">
          <mxGeometry x="504.5" y="808" width="26" height="80" as="geometry" />
        </mxCell>
        <mxCell id="AUkhUbtXe1NcL0Z-zVLZ-56" style="edgeStyle=orthogonalEdgeStyle;rounded=0;orthogonalLoop=1;jettySize=auto;html=1;entryX=0.75;entryY=0;entryDx=0;entryDy=0;" parent="1" source="AUkhUbtXe1NcL0Z-zVLZ-34" target="AUkhUbtXe1NcL0Z-zVLZ-52" edge="1">
          <mxGeometry relative="1" as="geometry" />
        </mxCell>
        <mxCell id="AUkhUbtXe1NcL0Z-zVLZ-34" value="计算销售提成" style="rounded=0;whiteSpace=wrap;html=1;" parent="1" vertex="1">
          <mxGeometry x="610.5" y="808" width="30" height="80" as="geometry" />
        </mxCell>
        <mxCell id="AUkhUbtXe1NcL0Z-zVLZ-37" value="" style="edgeStyle=orthogonalEdgeStyle;rounded=0;orthogonalLoop=1;jettySize=auto;html=1;" parent="1" source="AUkhUbtXe1NcL0Z-zVLZ-35" target="AUkhUbtXe1NcL0Z-zVLZ-34" edge="1">
          <mxGeometry relative="1" as="geometry" />
        </mxCell>
        <mxCell id="AUkhUbtXe1NcL0Z-zVLZ-39" style="edgeStyle=orthogonalEdgeStyle;rounded=0;orthogonalLoop=1;jettySize=auto;html=1;entryX=0.5;entryY=0;entryDx=0;entryDy=0;" parent="1" target="AUkhUbtXe1NcL0Z-zVLZ-29" edge="1">
          <mxGeometry relative="1" as="geometry">
            <mxPoint x="584.5" y="768" as="sourcePoint" />
            <Array as="points">
              <mxPoint x="585" y="788" />
              <mxPoint x="673" y="788" />
            </Array>
            <mxPoint x="702.5" y="808" as="targetPoint" />
          </mxGeometry>
        </mxCell>
        <mxCell id="AUkhUbtXe1NcL0Z-zVLZ-40" style="edgeStyle=orthogonalEdgeStyle;rounded=0;orthogonalLoop=1;jettySize=auto;html=1;entryX=0.25;entryY=0;entryDx=0;entryDy=0;" parent="1" source="AUkhUbtXe1NcL0Z-zVLZ-35" target="AUkhUbtXe1NcL0Z-zVLZ-30" edge="1">
          <mxGeometry relative="1" as="geometry" />
        </mxCell>
        <mxCell id="AUkhUbtXe1NcL0Z-zVLZ-41" style="edgeStyle=orthogonalEdgeStyle;rounded=0;orthogonalLoop=1;jettySize=auto;html=1;entryX=0.5;entryY=0;entryDx=0;entryDy=0;" parent="1" target="AUkhUbtXe1NcL0Z-zVLZ-36" edge="1">
          <mxGeometry relative="1" as="geometry">
            <mxPoint x="584.5" y="768" as="sourcePoint" />
            <Array as="points">
              <mxPoint x="584.5" y="788" />
              <mxPoint x="568.5" y="788" />
            </Array>
          </mxGeometry>
        </mxCell>
        <mxCell id="AUkhUbtXe1NcL0Z-zVLZ-35" value="生成月账单" style="rounded=0;whiteSpace=wrap;html=1;" parent="1" vertex="1">
          <mxGeometry x="524.5" y="738" width="120" height="30" as="geometry" />
        </mxCell>
        <mxCell id="AUkhUbtXe1NcL0Z-zVLZ-54" style="edgeStyle=orthogonalEdgeStyle;rounded=0;orthogonalLoop=1;jettySize=auto;html=1;entryX=0.75;entryY=0;entryDx=0;entryDy=0;exitX=0.5;exitY=1;exitDx=0;exitDy=0;" parent="1" source="AUkhUbtXe1NcL0Z-zVLZ-36" target="AUkhUbtXe1NcL0Z-zVLZ-51" edge="1">
          <mxGeometry relative="1" as="geometry">
            <Array as="points">
              <mxPoint x="569" y="900" />
              <mxPoint x="534" y="900" />
            </Array>
          </mxGeometry>
        </mxCell>
        <mxCell id="AUkhUbtXe1NcL0Z-zVLZ-36" value="计算合作伙伴返利&lt;br&gt;" style="rounded=0;whiteSpace=wrap;html=1;" parent="1" vertex="1">
          <mxGeometry x="555.5" y="808" width="26" height="80" as="geometry" />
        </mxCell>
        <mxCell id="AUkhUbtXe1NcL0Z-zVLZ-75" style="edgeStyle=orthogonalEdgeStyle;rounded=0;orthogonalLoop=1;jettySize=auto;html=1;entryX=0.5;entryY=0;entryDx=0;entryDy=0;" parent="1" source="AUkhUbtXe1NcL0Z-zVLZ-48" target="AUkhUbtXe1NcL0Z-zVLZ-57" edge="1">
          <mxGeometry relative="1" as="geometry" />
        </mxCell>
        <mxCell id="AUkhUbtXe1NcL0Z-zVLZ-48" value="申请开票" style="rounded=0;whiteSpace=wrap;html=1;" parent="1" vertex="1">
          <mxGeometry x="635.5" y="920" width="75" height="30" as="geometry" />
        </mxCell>
        <mxCell id="I3_jWcB05y7nGx8-yXRg-33" style="edgeStyle=orthogonalEdgeStyle;rounded=0;orthogonalLoop=1;jettySize=auto;html=1;entryX=1;entryY=0.5;entryDx=0;entryDy=0;" edge="1" parent="1" source="AUkhUbtXe1NcL0Z-zVLZ-51" target="AUkhUbtXe1NcL0Z-zVLZ-62">
          <mxGeometry relative="1" as="geometry" />
        </mxCell>
        <mxCell id="AUkhUbtXe1NcL0Z-zVLZ-51" value="申请返利" style="rounded=0;whiteSpace=wrap;html=1;" parent="1" vertex="1">
          <mxGeometry x="488.5" y="920" width="60" height="30" as="geometry" />
        </mxCell>
        <mxCell id="AUkhUbtXe1NcL0Z-zVLZ-81" value="" style="edgeStyle=orthogonalEdgeStyle;rounded=0;orthogonalLoop=1;jettySize=auto;html=1;" parent="1" source="AUkhUbtXe1NcL0Z-zVLZ-52" target="AUkhUbtXe1NcL0Z-zVLZ-80" edge="1">
          <mxGeometry relative="1" as="geometry" />
        </mxCell>
        <mxCell id="AUkhUbtXe1NcL0Z-zVLZ-52" value="申请提成" style="rounded=0;whiteSpace=wrap;html=1;" parent="1" vertex="1">
          <mxGeometry x="555.5" y="920" width="75" height="30" as="geometry" />
        </mxCell>
        <mxCell id="I3_jWcB05y7nGx8-yXRg-21" style="edgeStyle=orthogonalEdgeStyle;rounded=0;orthogonalLoop=1;jettySize=auto;html=1;entryX=0.5;entryY=0;entryDx=0;entryDy=0;" edge="1" parent="1" source="AUkhUbtXe1NcL0Z-zVLZ-57" target="AUkhUbtXe1NcL0Z-zVLZ-58">
          <mxGeometry relative="1" as="geometry" />
        </mxCell>
        <mxCell id="AUkhUbtXe1NcL0Z-zVLZ-57" value="财务开票" style="rounded=0;whiteSpace=wrap;html=1;" parent="1" vertex="1">
          <mxGeometry x="635.5" y="980" width="75" height="30" as="geometry" />
        </mxCell>
        <mxCell id="AUkhUbtXe1NcL0Z-zVLZ-77" style="edgeStyle=orthogonalEdgeStyle;rounded=0;orthogonalLoop=1;jettySize=auto;html=1;entryX=0;entryY=0.5;entryDx=0;entryDy=0;" parent="1" source="AUkhUbtXe1NcL0Z-zVLZ-58" target="AUkhUbtXe1NcL0Z-zVLZ-59" edge="1">
          <mxGeometry relative="1" as="geometry">
            <mxPoint x="730.5" y="1045.5" as="targetPoint" />
          </mxGeometry>
        </mxCell>
        <mxCell id="AUkhUbtXe1NcL0Z-zVLZ-58" value="邮寄发票" style="rounded=0;whiteSpace=wrap;html=1;" parent="1" vertex="1">
          <mxGeometry x="635.5" y="1030" width="75" height="30" as="geometry" />
        </mxCell>
        <mxCell id="AUkhUbtXe1NcL0Z-zVLZ-78" style="edgeStyle=orthogonalEdgeStyle;rounded=0;orthogonalLoop=1;jettySize=auto;html=1;entryX=1;entryY=0.75;entryDx=0;entryDy=0;exitX=0.5;exitY=1;exitDx=0;exitDy=0;fillColor=#d5e8d4;strokeColor=#82b366;" parent="1" source="AUkhUbtXe1NcL0Z-zVLZ-59" target="AUkhUbtXe1NcL0Z-zVLZ-60" edge="1">
          <mxGeometry relative="1" as="geometry" />
        </mxCell>
        <mxCell id="AUkhUbtXe1NcL0Z-zVLZ-59" value="阿里打款" style="rounded=0;whiteSpace=wrap;html=1;" parent="1" vertex="1">
          <mxGeometry x="752" y="1030" width="75" height="29" as="geometry" />
        </mxCell>
        <mxCell id="AUkhUbtXe1NcL0Z-zVLZ-167" style="edgeStyle=orthogonalEdgeStyle;rounded=0;orthogonalLoop=1;jettySize=auto;html=1;entryX=0.5;entryY=0;entryDx=0;entryDy=0;" parent="1" source="AUkhUbtXe1NcL0Z-zVLZ-60" target="AUkhUbtXe1NcL0Z-zVLZ-159" edge="1">
          <mxGeometry relative="1" as="geometry" />
        </mxCell>
        <mxCell id="AUkhUbtXe1NcL0Z-zVLZ-60" value="收到打款" style="rounded=0;whiteSpace=wrap;html=1;" parent="1" vertex="1">
          <mxGeometry x="633" y="1087" width="75" height="29" as="geometry" />
        </mxCell>
        <mxCell id="AUkhUbtXe1NcL0Z-zVLZ-69" value="" style="edgeStyle=orthogonalEdgeStyle;rounded=0;orthogonalLoop=1;jettySize=auto;html=1;" parent="1" source="AUkhUbtXe1NcL0Z-zVLZ-62" target="AUkhUbtXe1NcL0Z-zVLZ-65" edge="1">
          <mxGeometry relative="1" as="geometry" />
        </mxCell>
        <mxCell id="AUkhUbtXe1NcL0Z-zVLZ-62" value="客户/合作伙伴开票" style="rounded=0;whiteSpace=wrap;html=1;" parent="1" vertex="1">
          <mxGeometry x="125" y="920" width="75" height="30" as="geometry" />
        </mxCell>
        <mxCell id="AUkhUbtXe1NcL0Z-zVLZ-116" style="edgeStyle=orthogonalEdgeStyle;rounded=0;orthogonalLoop=1;jettySize=auto;html=1;" parent="1" source="AUkhUbtXe1NcL0Z-zVLZ-65" target="AUkhUbtXe1NcL0Z-zVLZ-112" edge="1">
          <mxGeometry relative="1" as="geometry" />
        </mxCell>
        <mxCell id="AUkhUbtXe1NcL0Z-zVLZ-65" value="邮件发票" style="rounded=0;whiteSpace=wrap;html=1;" parent="1" vertex="1">
          <mxGeometry x="125" y="990" width="75" height="30" as="geometry" />
        </mxCell>
        <mxCell id="AUkhUbtXe1NcL0Z-zVLZ-79" value="返佣&lt;br&gt;完成" style="ellipse;whiteSpace=wrap;html=1;aspect=fixed;" parent="1" vertex="1">
          <mxGeometry x="640.5" y="1358" width="60" height="59" as="geometry" />
        </mxCell>
        <mxCell id="AUkhUbtXe1NcL0Z-zVLZ-119" style="edgeStyle=orthogonalEdgeStyle;rounded=0;orthogonalLoop=1;jettySize=auto;html=1;entryX=0.5;entryY=0;entryDx=0;entryDy=0;" parent="1" source="AUkhUbtXe1NcL0Z-zVLZ-112" edge="1">
          <mxGeometry relative="1" as="geometry">
            <mxPoint x="520" y="1060" as="targetPoint" />
          </mxGeometry>
        </mxCell>
        <mxCell id="I3_jWcB05y7nGx8-yXRg-36" style="edgeStyle=orthogonalEdgeStyle;rounded=0;orthogonalLoop=1;jettySize=auto;html=1;entryX=0.75;entryY=0;entryDx=0;entryDy=0;" edge="1" parent="1" source="AUkhUbtXe1NcL0Z-zVLZ-80" target="AUkhUbtXe1NcL0Z-zVLZ-114">
          <mxGeometry relative="1" as="geometry" />
        </mxCell>
        <mxCell id="AUkhUbtXe1NcL0Z-zVLZ-80" value="支付提成" style="rounded=0;whiteSpace=wrap;html=1;" parent="1" vertex="1">
          <mxGeometry x="555.5" y="980" width="75" height="30" as="geometry" />
        </mxCell>
        <mxCell id="AUkhUbtXe1NcL0Z-zVLZ-89" value="" style="edgeStyle=orthogonalEdgeStyle;rounded=0;orthogonalLoop=1;jettySize=auto;html=1;entryX=0.5;entryY=0;entryDx=0;entryDy=0;" parent="1" source="AUkhUbtXe1NcL0Z-zVLZ-83" target="AUkhUbtXe1NcL0Z-zVLZ-86" edge="1">
          <mxGeometry relative="1" as="geometry" />
        </mxCell>
        <mxCell id="AUkhUbtXe1NcL0Z-zVLZ-83" value="录入发票信息" style="rounded=0;whiteSpace=wrap;html=1;" parent="1" vertex="1">
          <mxGeometry x="250" y="280" width="110" height="30" as="geometry" />
        </mxCell>
        <mxCell id="AUkhUbtXe1NcL0Z-zVLZ-93" value="" style="edgeStyle=orthogonalEdgeStyle;rounded=0;orthogonalLoop=1;jettySize=auto;html=1;" parent="1" source="AUkhUbtXe1NcL0Z-zVLZ-86" target="AUkhUbtXe1NcL0Z-zVLZ-87" edge="1">
          <mxGeometry relative="1" as="geometry" />
        </mxCell>
        <mxCell id="AUkhUbtXe1NcL0Z-zVLZ-86" value="邮寄发票" style="rounded=0;whiteSpace=wrap;html=1;" parent="1" vertex="1">
          <mxGeometry x="250" y="330" width="110" height="30" as="geometry" />
        </mxCell>
        <mxCell id="AUkhUbtXe1NcL0Z-zVLZ-94" style="edgeStyle=orthogonalEdgeStyle;rounded=0;orthogonalLoop=1;jettySize=auto;html=1;entryX=0;entryY=0.75;entryDx=0;entryDy=0;exitX=1;exitY=0.5;exitDx=0;exitDy=0;fillColor=#d5e8d4;strokeColor=#82b366;" parent="1" source="AUkhUbtXe1NcL0Z-zVLZ-87" target="AUkhUbtXe1NcL0Z-zVLZ-88" edge="1">
          <mxGeometry relative="1" as="geometry" />
        </mxCell>
        <mxCell id="AUkhUbtXe1NcL0Z-zVLZ-87" value="客户打款" style="rounded=0;whiteSpace=wrap;html=1;" parent="1" vertex="1">
          <mxGeometry x="50" y="390" width="120" height="24" as="geometry" />
        </mxCell>
        <mxCell id="AUkhUbtXe1NcL0Z-zVLZ-147" value="" style="edgeStyle=orthogonalEdgeStyle;rounded=0;orthogonalLoop=1;jettySize=auto;html=1;" parent="1" source="AUkhUbtXe1NcL0Z-zVLZ-88" target="AUkhUbtXe1NcL0Z-zVLZ-140" edge="1">
          <mxGeometry relative="1" as="geometry" />
        </mxCell>
        <mxCell id="AUkhUbtXe1NcL0Z-zVLZ-88" value="收到客户打款" style="rounded=0;whiteSpace=wrap;html=1;" parent="1" vertex="1">
          <mxGeometry x="250" y="378" width="110" height="32.5" as="geometry" />
        </mxCell>
        <mxCell id="AUkhUbtXe1NcL0Z-zVLZ-99" value="" style="edgeStyle=orthogonalEdgeStyle;rounded=0;orthogonalLoop=1;jettySize=auto;html=1;" parent="1" source="AUkhUbtXe1NcL0Z-zVLZ-95" edge="1">
          <mxGeometry relative="1" as="geometry">
            <mxPoint x="310" y="280" as="targetPoint" />
          </mxGeometry>
        </mxCell>
        <mxCell id="AUkhUbtXe1NcL0Z-zVLZ-95" value="生成开票信息" style="rounded=0;whiteSpace=wrap;html=1;" parent="1" vertex="1">
          <mxGeometry x="250" y="230" width="110" height="30" as="geometry" />
        </mxCell>
        <mxCell id="AUkhUbtXe1NcL0Z-zVLZ-142" value="" style="edgeStyle=orthogonalEdgeStyle;rounded=0;orthogonalLoop=1;jettySize=auto;html=1;" parent="1" source="AUkhUbtXe1NcL0Z-zVLZ-104" target="AUkhUbtXe1NcL0Z-zVLZ-141" edge="1">
          <mxGeometry relative="1" as="geometry" />
        </mxCell>
        <mxCell id="AUkhUbtXe1NcL0Z-zVLZ-145" value="是" style="edgeLabel;html=1;align=center;verticalAlign=middle;resizable=0;points=[];" parent="AUkhUbtXe1NcL0Z-zVLZ-142" vertex="1" connectable="0">
          <mxGeometry x="-0.2889" relative="1" as="geometry">
            <mxPoint as="offset" />
          </mxGeometry>
        </mxCell>
        <mxCell id="AUkhUbtXe1NcL0Z-zVLZ-144" value="否" style="edgeStyle=orthogonalEdgeStyle;rounded=0;orthogonalLoop=1;jettySize=auto;html=1;entryX=0;entryY=0.5;entryDx=0;entryDy=0;exitX=0;exitY=0.5;exitDx=0;exitDy=0;" parent="1" source="AUkhUbtXe1NcL0Z-zVLZ-104" target="AUkhUbtXe1NcL0Z-zVLZ-140" edge="1">
          <mxGeometry relative="1" as="geometry" />
        </mxCell>
        <mxCell id="AUkhUbtXe1NcL0Z-zVLZ-104" value="发票金额是否等于合同订单金额" style="rhombus;whiteSpace=wrap;html=1;" parent="1" vertex="1">
          <mxGeometry x="240" y="498" width="100" height="55" as="geometry" />
        </mxCell>
        <mxCell id="AUkhUbtXe1NcL0Z-zVLZ-100" value="客户开票完成" style="ellipse;whiteSpace=wrap;html=1;aspect=fixed;" parent="1" vertex="1">
          <mxGeometry x="260" y="647.5" width="60" height="60" as="geometry" />
        </mxCell>
        <mxCell id="I3_jWcB05y7nGx8-yXRg-26" style="edgeStyle=orthogonalEdgeStyle;rounded=0;orthogonalLoop=1;jettySize=auto;html=1;" edge="1" parent="1" source="AUkhUbtXe1NcL0Z-zVLZ-112">
          <mxGeometry relative="1" as="geometry">
            <mxPoint x="520" y="1060" as="targetPoint" />
          </mxGeometry>
        </mxCell>
        <mxCell id="AUkhUbtXe1NcL0Z-zVLZ-120" value="" style="edgeStyle=orthogonalEdgeStyle;rounded=0;orthogonalLoop=1;jettySize=auto;html=1;" parent="1" source="AUkhUbtXe1NcL0Z-zVLZ-114" target="AUkhUbtXe1NcL0Z-zVLZ-115" edge="1">
          <mxGeometry relative="1" as="geometry" />
        </mxCell>
        <mxCell id="AUkhUbtXe1NcL0Z-zVLZ-114" value="OA发起支付申请" style="rounded=0;whiteSpace=wrap;html=1;" parent="1" vertex="1">
          <mxGeometry x="482.5" y="1060" width="75" height="30" as="geometry" />
        </mxCell>
        <mxCell id="AUkhUbtXe1NcL0Z-zVLZ-115" value="支付返利/提成" style="rounded=0;whiteSpace=wrap;html=1;" parent="1" vertex="1">
          <mxGeometry x="482.5" y="1131.5" width="75" height="30" as="geometry" />
        </mxCell>
        <mxCell id="AUkhUbtXe1NcL0Z-zVLZ-118" value="返利/提现&lt;br&gt;完成" style="ellipse;whiteSpace=wrap;html=1;aspect=fixed;" parent="1" vertex="1">
          <mxGeometry x="490" y="1368" width="60" height="60" as="geometry" />
        </mxCell>
        <mxCell id="AUkhUbtXe1NcL0Z-zVLZ-132" value="代销" style="edgeStyle=orthogonalEdgeStyle;rounded=0;orthogonalLoop=1;jettySize=auto;html=1;entryX=0;entryY=0.5;entryDx=0;entryDy=0;exitX=0.5;exitY=0;exitDx=0;exitDy=0;" parent="1" source="AUkhUbtXe1NcL0Z-zVLZ-124" target="AUkhUbtXe1NcL0Z-zVLZ-127" edge="1">
          <mxGeometry relative="1" as="geometry" />
        </mxCell>
        <mxCell id="AUkhUbtXe1NcL0Z-zVLZ-124" value="充值类型" style="rhombus;whiteSpace=wrap;html=1;" parent="1" vertex="1">
          <mxGeometry x="544.5" y="364" width="80" height="50" as="geometry" />
        </mxCell>
        <mxCell id="AUkhUbtXe1NcL0Z-zVLZ-133" style="edgeStyle=orthogonalEdgeStyle;rounded=0;orthogonalLoop=1;jettySize=auto;html=1;entryX=0.5;entryY=0;entryDx=0;entryDy=0;" parent="1" source="AUkhUbtXe1NcL0Z-zVLZ-127" target="AUkhUbtXe1NcL0Z-zVLZ-126" edge="1">
          <mxGeometry relative="1" as="geometry" />
        </mxCell>
        <mxCell id="AUkhUbtXe1NcL0Z-zVLZ-127" value="充值分销账号" style="rounded=0;whiteSpace=wrap;html=1;" parent="1" vertex="1">
          <mxGeometry x="716.5" y="310" width="90" height="37.5" as="geometry" />
        </mxCell>
        <mxCell id="I3_jWcB05y7nGx8-yXRg-27" style="edgeStyle=orthogonalEdgeStyle;rounded=0;orthogonalLoop=1;jettySize=auto;html=1;entryX=0.5;entryY=0;entryDx=0;entryDy=0;" edge="1" parent="1" source="AUkhUbtXe1NcL0Z-zVLZ-126" target="AUkhUbtXe1NcL0Z-zVLZ-21">
          <mxGeometry relative="1" as="geometry" />
        </mxCell>
        <mxCell id="AUkhUbtXe1NcL0Z-zVLZ-126" value="充值客户阿里云账号" style="rounded=0;whiteSpace=wrap;html=1;" parent="1" vertex="1">
          <mxGeometry x="716.5" y="374" width="90" height="30" as="geometry" />
        </mxCell>
        <mxCell id="AUkhUbtXe1NcL0Z-zVLZ-130" style="edgeStyle=orthogonalEdgeStyle;rounded=0;orthogonalLoop=1;jettySize=auto;html=1;" parent="1" source="AUkhUbtXe1NcL0Z-zVLZ-124" target="AUkhUbtXe1NcL0Z-zVLZ-126" edge="1">
          <mxGeometry relative="1" as="geometry">
            <mxPoint x="697" y="430" as="sourcePoint" />
            <mxPoint x="827" y="400" as="targetPoint" />
          </mxGeometry>
        </mxCell>
        <mxCell id="AUkhUbtXe1NcL0Z-zVLZ-131" value="代理" style="edgeLabel;html=1;align=center;verticalAlign=middle;resizable=0;points=[];" parent="AUkhUbtXe1NcL0Z-zVLZ-130" vertex="1" connectable="0">
          <mxGeometry x="-0.2889" y="-1" relative="1" as="geometry">
            <mxPoint as="offset" />
          </mxGeometry>
        </mxCell>
        <mxCell id="AUkhUbtXe1NcL0Z-zVLZ-148" value="" style="edgeStyle=orthogonalEdgeStyle;rounded=0;orthogonalLoop=1;jettySize=auto;html=1;" parent="1" source="AUkhUbtXe1NcL0Z-zVLZ-140" target="AUkhUbtXe1NcL0Z-zVLZ-104" edge="1">
          <mxGeometry relative="1" as="geometry">
            <Array as="points">
              <mxPoint x="290" y="480" />
              <mxPoint x="290" y="480" />
            </Array>
          </mxGeometry>
        </mxCell>
        <mxCell id="AUkhUbtXe1NcL0Z-zVLZ-140" value="发票核销" style="rounded=0;whiteSpace=wrap;html=1;" parent="1" vertex="1">
          <mxGeometry x="250" y="435.5" width="110" height="32.5" as="geometry" />
        </mxCell>
        <mxCell id="AUkhUbtXe1NcL0Z-zVLZ-146" value="" style="edgeStyle=orthogonalEdgeStyle;rounded=0;orthogonalLoop=1;jettySize=auto;html=1;" parent="1" source="AUkhUbtXe1NcL0Z-zVLZ-141" target="AUkhUbtXe1NcL0Z-zVLZ-100" edge="1">
          <mxGeometry relative="1" as="geometry" />
        </mxCell>
        <mxCell id="AUkhUbtXe1NcL0Z-zVLZ-141" value="订单状态改为&lt;br&gt;已收款" style="rounded=0;whiteSpace=wrap;html=1;" parent="1" vertex="1">
          <mxGeometry x="230" y="588" width="120" height="32.5" as="geometry" />
        </mxCell>
        <mxCell id="AUkhUbtXe1NcL0Z-zVLZ-149" value="" style="edgeStyle=orthogonalEdgeStyle;rounded=0;orthogonalLoop=1;jettySize=auto;html=1;" parent="1" source="AUkhUbtXe1NcL0Z-zVLZ-152" target="AUkhUbtXe1NcL0Z-zVLZ-156" edge="1">
          <mxGeometry relative="1" as="geometry" />
        </mxCell>
        <mxCell id="AUkhUbtXe1NcL0Z-zVLZ-150" value="是" style="edgeLabel;html=1;align=center;verticalAlign=middle;resizable=0;points=[];" parent="AUkhUbtXe1NcL0Z-zVLZ-149" vertex="1" connectable="0">
          <mxGeometry x="-0.2889" relative="1" as="geometry">
            <mxPoint as="offset" />
          </mxGeometry>
        </mxCell>
        <mxCell id="AUkhUbtXe1NcL0Z-zVLZ-162" style="edgeStyle=orthogonalEdgeStyle;rounded=0;orthogonalLoop=1;jettySize=auto;html=1;entryX=1;entryY=0.25;entryDx=0;entryDy=0;exitX=1;exitY=0.5;exitDx=0;exitDy=0;" parent="1" source="AUkhUbtXe1NcL0Z-zVLZ-152" target="AUkhUbtXe1NcL0Z-zVLZ-159" edge="1">
          <mxGeometry relative="1" as="geometry">
            <mxPoint x="725.5" y="1208" as="sourcePoint" />
          </mxGeometry>
        </mxCell>
        <mxCell id="AUkhUbtXe1NcL0Z-zVLZ-163" value="否" style="edgeLabel;html=1;align=center;verticalAlign=middle;resizable=0;points=[];" parent="AUkhUbtXe1NcL0Z-zVLZ-162" vertex="1" connectable="0">
          <mxGeometry x="-0.222" y="2" relative="1" as="geometry">
            <mxPoint y="1" as="offset" />
          </mxGeometry>
        </mxCell>
        <mxCell id="AUkhUbtXe1NcL0Z-zVLZ-152" value="发票金额是否等于返佣金额" style="rhombus;whiteSpace=wrap;html=1;" parent="1" vertex="1">
          <mxGeometry x="620.5" y="1188" width="100" height="54" as="geometry" />
        </mxCell>
        <mxCell id="I3_jWcB05y7nGx8-yXRg-8" style="edgeStyle=orthogonalEdgeStyle;rounded=0;orthogonalLoop=1;jettySize=auto;html=1;entryX=0.5;entryY=0;entryDx=0;entryDy=0;" edge="1" parent="1" source="AUkhUbtXe1NcL0Z-zVLZ-156" target="AUkhUbtXe1NcL0Z-zVLZ-79">
          <mxGeometry relative="1" as="geometry" />
        </mxCell>
        <mxCell id="AUkhUbtXe1NcL0Z-zVLZ-156" value="返佣金额状态&lt;br&gt;改为已收款" style="rounded=0;whiteSpace=wrap;html=1;" parent="1" vertex="1">
          <mxGeometry x="610.5" y="1278" width="120" height="35.62" as="geometry" />
        </mxCell>
        <mxCell id="AUkhUbtXe1NcL0Z-zVLZ-168" style="edgeStyle=orthogonalEdgeStyle;rounded=0;orthogonalLoop=1;jettySize=auto;html=1;" parent="1" source="AUkhUbtXe1NcL0Z-zVLZ-159" target="AUkhUbtXe1NcL0Z-zVLZ-152" edge="1">
          <mxGeometry relative="1" as="geometry" />
        </mxCell>
        <mxCell id="AUkhUbtXe1NcL0Z-zVLZ-159" value="发票核销" style="rounded=0;whiteSpace=wrap;html=1;" parent="1" vertex="1">
          <mxGeometry x="635.5" y="1138" width="70" height="31.5" as="geometry" />
        </mxCell>
        <mxCell id="I3_jWcB05y7nGx8-yXRg-7" value="" style="edgeStyle=orthogonalEdgeStyle;rounded=0;orthogonalLoop=1;jettySize=auto;html=1;" edge="1" parent="1" source="I3_jWcB05y7nGx8-yXRg-2" target="rOA4uBclnJZB5DrJUqV7-61">
          <mxGeometry relative="1" as="geometry" />
        </mxCell>
        <mxCell id="I3_jWcB05y7nGx8-yXRg-2" value="充值订单状态改为已完成" style="rounded=0;whiteSpace=wrap;html=1;" vertex="1" parent="1">
          <mxGeometry x="396" y="780" width="83" height="30" as="geometry" />
        </mxCell>
        <mxCell id="I3_jWcB05y7nGx8-yXRg-14" value="否" style="edgeStyle=orthogonalEdgeStyle;rounded=0;orthogonalLoop=1;jettySize=auto;html=1;entryX=0;entryY=0.25;entryDx=0;entryDy=0;exitX=0;exitY=0.5;exitDx=0;exitDy=0;" edge="1" parent="1" source="I3_jWcB05y7nGx8-yXRg-9" target="AUkhUbtXe1NcL0Z-zVLZ-66">
          <mxGeometry relative="1" as="geometry" />
        </mxCell>
        <mxCell id="I3_jWcB05y7nGx8-yXRg-18" value="是" style="edgeStyle=orthogonalEdgeStyle;rounded=0;orthogonalLoop=1;jettySize=auto;html=1;" edge="1" parent="1" source="I3_jWcB05y7nGx8-yXRg-9" target="I3_jWcB05y7nGx8-yXRg-15">
          <mxGeometry relative="1" as="geometry" />
        </mxCell>
        <mxCell id="I3_jWcB05y7nGx8-yXRg-9" value="是否同步到&lt;br&gt;归档信息" style="rhombus;whiteSpace=wrap;html=1;" vertex="1" parent="1">
          <mxGeometry x="470" y="1229" width="100" height="55" as="geometry" />
        </mxCell>
        <mxCell id="I3_jWcB05y7nGx8-yXRg-11" value="" style="edgeStyle=orthogonalEdgeStyle;rounded=0;orthogonalLoop=1;jettySize=auto;html=1;" edge="1" parent="1" source="AUkhUbtXe1NcL0Z-zVLZ-66" target="I3_jWcB05y7nGx8-yXRg-9">
          <mxGeometry relative="1" as="geometry" />
        </mxCell>
        <mxCell id="AUkhUbtXe1NcL0Z-zVLZ-66" value="同步OA支付返利申请状态" style="rounded=0;whiteSpace=wrap;html=1;" parent="1" vertex="1">
          <mxGeometry x="482.5" y="1179" width="75" height="30" as="geometry" />
        </mxCell>
        <mxCell id="I3_jWcB05y7nGx8-yXRg-10" value="" style="edgeStyle=orthogonalEdgeStyle;rounded=0;orthogonalLoop=1;jettySize=auto;html=1;" edge="1" parent="1" source="AUkhUbtXe1NcL0Z-zVLZ-115" target="AUkhUbtXe1NcL0Z-zVLZ-66">
          <mxGeometry relative="1" as="geometry">
            <mxPoint x="519.5" y="1219" as="targetPoint" />
            <mxPoint x="520" y="1161.5" as="sourcePoint" />
          </mxGeometry>
        </mxCell>
        <mxCell id="I3_jWcB05y7nGx8-yXRg-19" value="" style="edgeStyle=orthogonalEdgeStyle;rounded=0;orthogonalLoop=1;jettySize=auto;html=1;" edge="1" parent="1" source="I3_jWcB05y7nGx8-yXRg-15" target="AUkhUbtXe1NcL0Z-zVLZ-118">
          <mxGeometry relative="1" as="geometry" />
        </mxCell>
        <mxCell id="I3_jWcB05y7nGx8-yXRg-15" value="修改返利/体现&lt;br&gt;状态为已完成" style="rounded=0;whiteSpace=wrap;html=1;" vertex="1" parent="1">
          <mxGeometry x="459.5" y="1311.38" width="120" height="36.62" as="geometry" />
        </mxCell>
        <mxCell id="AUkhUbtXe1NcL0Z-zVLZ-112" value="收到客户发票" style="rounded=0;whiteSpace=wrap;html=1;" parent="1" vertex="1">
          <mxGeometry x="454.5" y="980" width="90" height="30" as="geometry" />
        </mxCell>
      </root>
    </mxGraphModel>
  </diagram>
</mxfile>
